<?xml version="1.0" encoding="utf-8"?>
<!-- Generator: Adobe Illustrator 17.1.0, SVG Export Plug-In . SVG Version: 6.00 Build 0)  -->
<!DOCTYPE svg PUBLIC "-//W3C//DTD SVG 1.1//EN" "http://www.w3.org/Graphics/SVG/1.1/DTD/svg11.dtd">
<svg version="1.1" id="Layer_1" xmlns="http://www.w3.org/2000/svg" xmlns:xlink="http://www.w3.org/1999/xlink" x="0px" y="0px"
	 viewBox="463.3 227.2 52.8 54.5" enable-background="new 463.3 227.2 52.8 54.5" xml:space="preserve">
<g>
	<path opacity="0.48" fill="none" d="M497.8,248.7c-0.9-1.3-2.1-2.5-3.6-3.1c-1.4-0.6-3.1-0.9-4.7-0.7c-1.6,0.2-3.1,0.9-4.3,2
		c-1.2,1.1-2.1,2.5-2.6,4c-0.4,1.5-0.4,3.2,0,4.7c0.5,1.5,1.3,2.9,2.6,4c1.2,1.1,2.7,1.8,4.3,2c1.6,0.3,3.3,0,4.7-0.7
		c1.5-0.7,2.7-1.8,3.6-3.1c0.9-1.4,1.3-2.9,1.3-4.5C499.1,251.6,498.7,250,497.8,248.7z"/>
	<path opacity="0.48" fill="none" d="M500.4,247c-1.2-1.8-2.9-3.3-4.9-4.2c-2-0.9-4.2-1.3-6.4-0.9c-2.2,0.3-4.2,1.2-5.9,2.7
		c-1.7,1.4-2.9,3.3-3.5,5.4c-0.6,2.1-0.6,4.4,0,6.5c0.6,2.1,1.8,4,3.5,5.4c1.7,1.4,3.7,2.4,5.9,2.7c2.2,0.3,4.4,0,6.4-0.9
		c2-0.9,3.7-2.4,4.9-4.2c1.2-1.8,1.8-4,1.8-6.2C502.2,251,501.6,248.9,500.4,247z M499.6,258.9c-1.1,1.7-2.7,3.1-4.5,3.9
		c-1.8,0.8-3.9,1.2-5.9,0.8c-2-0.3-3.9-1.1-5.4-2.5c-1.5-1.3-2.6-3.1-3.2-5c-0.6-1.9-0.6-4,0-5.9c0.6-1.9,1.7-3.7,3.2-5
		c1.5-1.3,3.4-2.2,5.4-2.5c2-0.3,4.1,0,5.9,0.8c1.8,0.8,3.4,2.2,4.5,3.9c1.1,1.7,1.6,3.7,1.7,5.7
		C501.3,255.2,500.7,257.2,499.6,258.9z"/>
	<path opacity="0.48" fill="#282A1F" d="M510.7,253.2c0-0.7-0.1-1.5-0.1-2.2c1.1-0.5,2.3-1.2,3.4-1.8c-0.3-1.8-0.8-3.5-1.5-5.1
		c-1.3,0-2.6,0.1-3.8,0.3c-0.3-0.7-0.7-1.3-1.1-1.9c-0.4-0.6-0.8-1.2-1.3-1.8c0.7-1.1,1.3-2.2,1.8-3.4c-1.2-1.3-2.6-2.5-4-3.5
		c-1.1,0.7-2.1,1.5-3.1,2.3c-0.6-0.4-1.3-0.7-1.9-1c-0.6-0.3-1.4-0.5-2-0.8c0-1.3-0.1-2.5-0.3-3.8c-1.7-0.5-3.5-0.7-5.3-0.8
		c-0.5,1.2-1,2.4-1.3,3.6c-0.7,0-1.5,0.1-2.2,0.2c-0.7,0.1-1.4,0.2-2.1,0.4c-0.7-1-1.5-2.1-2.3-3.1c-1.7,0.6-3.3,1.3-4.9,2.2
		c0.2,1.3,0.5,2.5,0.8,3.7c-0.6,0.4-1.2,0.8-1.7,1.3c-0.5,0.5-1.1,1-1.6,1.5c-1.2-0.5-2.4-1-3.6-1.3c-1.1,1.4-2.1,2.9-2.9,4.5
		c0.9,1,1.8,1.9,2.7,2.7c-0.2,0.7-0.5,1.4-0.7,2.1c-0.2,0.7-0.4,1.4-0.5,2.1c-1.2,0.2-2.5,0.5-3.8,0.8c-0.2,1.8-0.2,3.5,0,5.3
		c1.3,0.4,2.5,0.6,3.8,0.8c0.1,0.7,0.3,1.4,0.5,2.1c0.2,0.7,0.5,1.4,0.7,2.1c-0.9,0.8-1.8,1.7-2.7,2.7c0.8,1.6,1.8,3.1,2.9,4.5
		c1.2-0.4,2.5-0.8,3.6-1.3c0.5,0.6,1,1,1.6,1.5c0.5,0.5,1.1,0.9,1.7,1.3c-0.3,1.2-0.6,2.5-0.8,3.7c1.5,0.9,3.2,1.7,4.9,2.2
		c0.8-1,1.6-2,2.3-3.1c0.7,0.2,1.4,0.3,2.1,0.4c0.7,0.1,1.4,0.2,2.2,0.2c0.4,1.2,0.8,2.4,1.3,3.6c1.8-0.1,3.6-0.3,5.3-0.8
		c0.2-1.3,0.3-2.5,0.3-3.8c0.7-0.3,1.4-0.5,2-0.8c0.7-0.3,1.3-0.6,1.9-1c1,0.8,2,1.6,3.1,2.3c1.4-1,2.8-2.2,4-3.5
		c-0.6-1.2-1.1-2.3-1.8-3.4c0.4-0.6,0.9-1.1,1.3-1.8c0.4-0.6,0.8-1.2,1.1-1.9c1.3,0.2,2.5,0.3,3.8,0.3c0.7-1.7,1.2-3.4,1.5-5.1
		c-1.1-0.7-2.2-1.3-3.4-1.8C510.6,254.7,510.7,253.9,510.7,253.2z M495.5,263.7c-2,0.9-4.2,1.3-6.4,0.9c-2.2-0.3-4.2-1.2-5.9-2.7
		c-1.7-1.4-2.9-3.3-3.5-5.4c-0.6-2.1-0.6-4.4,0-6.5c0.6-2.1,1.8-4,3.5-5.4c1.7-1.4,3.7-2.4,5.9-2.7c2.2-0.3,4.4,0,6.4,0.9
		c2,0.9,3.7,2.4,4.9,4.2c1.2,1.8,1.8,4,1.8,6.2c0,2.2-0.6,4.4-1.8,6.2C499.2,261.2,497.5,262.8,495.5,263.7z"/>
	<path opacity="0.48" fill="#282A1F" d="M499.6,247.5c-1.1-1.7-2.7-3.1-4.5-3.9c-1.8-0.8-3.9-1.2-5.9-0.8c-2,0.3-3.9,1.1-5.4,2.5
		c-1.5,1.3-2.6,3.1-3.2,5c-0.6,1.9-0.6,4,0,5.9c0.6,1.9,1.7,3.7,3.2,5c1.5,1.3,3.4,2.2,5.4,2.5c2,0.3,4.1,0,5.9-0.8
		c1.8-0.8,3.4-2.2,4.5-3.9c1.1-1.7,1.6-3.7,1.7-5.7C501.3,251.2,500.7,249.2,499.6,247.5z M494.2,260.9c-1.4,0.6-3.1,0.9-4.7,0.7
		c-1.6-0.2-3.1-0.9-4.3-2c-1.2-1.1-2.1-2.5-2.6-4c-0.4-1.5-0.4-3.2,0-4.7c0.5-1.5,1.3-2.9,2.6-4c1.2-1.1,2.7-1.8,4.3-2
		c1.6-0.3,3.3,0,4.7,0.7c1.5,0.7,2.7,1.8,3.6,3.1c0.9,1.4,1.3,2.9,1.3,4.5c0,1.6-0.5,3.2-1.3,4.5C497,259.1,495.7,260.2,494.2,260.9
		z"/>
</g>
</svg>
